<?xml version="1.0" standalone="no"?><!DOCTYPE svg PUBLIC "-//W3C//DTD SVG 1.1//EN" "http://www.w3.org/Graphics/SVG/1.1/DTD/svg11.dtd"><svg t="1561964195721" class="icon" viewBox="0 0 1024 1024" version="1.1" xmlns="http://www.w3.org/2000/svg" p-id="5855" xmlns:xlink="http://www.w3.org/1999/xlink" width="200" height="200"><defs><style type="text/css"></style></defs><path d="M787.810185 64.645322 237.083162 64.645322c-75.838246 0-137.232524 60.489676-137.232524 135.423319l0 623.857601c0 74.93876 61.394279 135.428436 137.232524 135.428436l549.82242 0c75.837222 0 137.231501-60.488653 137.231501-135.428436L924.137083 200.068641C925.042709 125.134998 863.64843 64.645322 787.810185 64.645322zM861.844342 823.026756c0 39.7227-33.406854 73.130577-74.034157 73.130577L237.982648 896.157333c-40.626279 0-74.030064-32.504298-74.030064-73.130577L163.952584 199.169155c0-39.726793 33.403784-73.129554 74.030064-73.129554l549.827537 0c40.626279 0 74.034157 32.498158 74.034157 73.129554L861.844342 823.026756z" p-id="5856" fill="#999999"></path><path d="M291.732829 255.787664l255.842922 0 0 63.960731-255.842922 0 0-63.960731Z" p-id="5857" fill="#999999"></path><path d="M291.732829 447.669856l447.724091 0 0 63.960731-447.724091 0 0-63.960731Z" p-id="5858" fill="#999999"></path><path d="M291.732829 639.552048l447.724091 0 0 63.960731-447.724091 0 0-63.960731Z" p-id="5859" fill="#999999"></path></svg>