<?xml version="1.0" standalone="no"?><!DOCTYPE svg PUBLIC "-//W3C//DTD SVG 1.1//EN" "http://www.w3.org/Graphics/SVG/1.1/DTD/svg11.dtd"><svg t="1562142544319" class="icon" viewBox="0 0 1024 1024" version="1.1" xmlns="http://www.w3.org/2000/svg" p-id="7630" xmlns:xlink="http://www.w3.org/1999/xlink" width="200" height="200"><defs><style type="text/css"></style></defs><path d="M877.714286 768l73.142857-73.142857h-219.428572a73.142857 73.142857 0 0 0-73.142857 73.142857v219.428571l73.142857-73.142857v-146.285714h146.285715z m0 0l73.142857-73.142857h-219.428572a73.142857 73.142857 0 0 0-73.142857 73.142857v219.428571l73.142857-73.142857v-146.285714h146.285715z" p-id="7631"></path><path d="M219.428571 950.857143a73.142857 73.142857 0 0 1-73.142857-73.142857V146.285714a73.142857 73.142857 0 0 1 73.142857-73.142857h585.142858a73.142857 73.142857 0 0 1 73.142857 73.142857v591.725715L671.195429 950.857143H219.428571z m0 73.142857h451.766858a73.142857 73.142857 0 0 0 52.516571-22.198857l206.518857-212.882286A73.142857 73.142857 0 0 0 950.857143 737.974857V146.285714a146.285714 146.285714 0 0 0-146.285714-146.285714H219.428571a146.285714 146.285714 0 0 0-146.285714 146.285714v731.428572a146.285714 146.285714 0 0 0 146.285714 146.285714z" p-id="7632"></path><path d="M219.428571 621.714286m36.571429 0l292.571429 0q36.571429 0 36.571428 36.571428l0 0q0 36.571429-36.571428 36.571429l-292.571429 0q-36.571429 0-36.571429-36.571429l0 0q0-36.571429 36.571429-36.571428Z" p-id="7633"></path><path d="M219.428571 256m36.571429 0l512 0q36.571429 0 36.571429 36.571429l0 0q0 36.571429-36.571429 36.571428l-512 0q-36.571429 0-36.571429-36.571428l0 0q0-36.571429 36.571429-36.571429Z" p-id="7634"></path><path d="M219.428571 438.857143m36.571429 0l512 0q36.571429 0 36.571429 36.571428l0 0q0 36.571429-36.571429 36.571429l-512 0q-36.571429 0-36.571429-36.571429l0 0q0-36.571429 36.571429-36.571428Z" p-id="7635"></path></svg>