<?xml version="1.0" standalone="no"?><!DOCTYPE svg PUBLIC "-//W3C//DTD SVG 1.1//EN" "http://www.w3.org/Graphics/SVG/1.1/DTD/svg11.dtd"><svg t="1561964125590" class="icon" viewBox="0 0 1024 1024" version="1.1" xmlns="http://www.w3.org/2000/svg" p-id="4240" xmlns:xlink="http://www.w3.org/1999/xlink" width="200" height="200"><defs><style type="text/css"></style></defs><path d="M512 252.462c-174.548 0-324.653 108.241-384.03 261.85 59.377 153.607 209.481 261.85 384.03 261.85 174.551 0 324.705-108.242 384.029-261.85-59.325-153.61-209.478-261.85-384.03-261.85m0 436.4c-97.731 0-174.547-76.767-174.547-174.55 0-97.782 76.816-174.552 174.547-174.552 97.786 0 174.552 76.77 174.552 174.552 0 97.783-76.766 174.55-174.552 174.55m0-279.289c-59.324 0-104.737 45.413-104.737 104.739 0 59.328 45.413 104.74 104.737 104.74 59.378 0 104.741-45.413 104.741-104.74 0-59.326-45.363-104.739-104.74-104.739" fill="#999999" p-id="4241"></path></svg>