<?xml version="1.0" standalone="no"?><!DOCTYPE svg PUBLIC "-//W3C//DTD SVG 1.1//EN" "http://www.w3.org/Graphics/SVG/1.1/DTD/svg11.dtd"><svg t="1561964083914" class="icon" viewBox="0 0 1024 1024" version="1.1" xmlns="http://www.w3.org/2000/svg" p-id="3456" xmlns:xlink="http://www.w3.org/1999/xlink" width="200" height="200"><defs><style type="text/css"></style></defs><path d="M511.747 925.571c-23.064 0-46.33-7.138-64.852-21.54-10.482-7.294-287.807-202.986-366.174-394.587a31.672 31.672 0 0 1-2.208-8.942c-11.291-32.333-16.998-62.628-16.998-90.078v-16.827c0-161.399 123.763-292.721 275.894-292.721 64.759 0 127.776 24.712 177.2 68.694 51.431-44.51 112.986-68.694 176.252-68.694 71.991 0 139.782 29.285 190.902 82.442 53.515 55.661 82.442 132.768 79.347 211.524l0.031 15.583c0 20.14-1.789 47.667-15.552 82.877-3.188 11.648-8.258 22.597-13.173 32.597-0.809 4.65-2.442 9.285-5.474 13.764-0.016 0.016-0.016 0.016-0.016 0.031l-8.429 16.858c-101.4 176.812-334.121 341.477-343.981 348.398-17.59 13.716-40.079 20.621-62.769 20.621zM141.763 490.299c74.386 173.095 340.248 360.606 342.939 362.488 15.039 11.617 38.243 11.664 51.944 0.964 3.546-2.551 232.301-164.479 325.754-327.325l7.543-15.225 0.047 0.016c0.124-0.296 0.264-0.591 0.404-0.886 0.56-2.815 1.353-5.521 2.364-7.543 4.992-10 9.658-19.347 11.602-27.138a31.75 31.75 0 0 1 1.338-4.121c10.311-25.801 11.742-44.619 11.742-61.104v-16.827c2.442-62.799-20.016-122.892-61.586-166.127-39.005-40.56-90.497-62.893-144.992-62.893-55.568 0-110.109 25.35-153.561 71.368-6.128 6.485-15.054 9.767-23.639 9.984a31.901 31.901 0 0 1-23.328-10.684c-39.907-44.914-95.645-70.669-152.924-70.669-116.998 0-212.193 102.737-212.193 229.02v14.028c0 24.199 5.023 48.849 14.93 76.065a31.144 31.144 0 0 1 1.616 6.609z m758.179 32.24h0.327-0.327z" p-id="3457" fill="#999999"></path></svg>