<?xml version="1.0" standalone="no"?><!DOCTYPE svg PUBLIC "-//W3C//DTD SVG 1.1//EN" "http://www.w3.org/Graphics/SVG/1.1/DTD/svg11.dtd"><svg t="1562142190406" class="icon" viewBox="0 0 1024 1024" version="1.1" xmlns="http://www.w3.org/2000/svg" p-id="5300" xmlns:xlink="http://www.w3.org/1999/xlink" width="200" height="200"><defs><style type="text/css"></style></defs><path d="M836.9808877 473.16385185h-469.91739259a38.83614815 38.83614815 0 0 0 0 77.6722963h469.91739259a38.83614815 38.83614815 0 0 0 0-77.6722963M836.9808877 706.18074075h-469.91739259a38.83614815 38.83614815 0 0 0 0 77.67229628h469.91739259a38.83614815 38.83614815 0 0 0 0-77.67229628M201.31081482 240.14696297a38.83614815 38.83614815 0 1 0 0 77.67229628 38.83614815 38.83614815 0 0 0 0-77.67229628M367.06349511 317.81925925h469.91739259a38.83614815 38.83614815 0 0 0 0-77.67229628h-469.91739259a38.83614815 38.83614815 0 0 0 0 77.67229628M201.31081482 473.16385185a38.83614815 38.83614815 0 1 0 0 77.6722963 38.83614815 38.83614815 0 0 0 0-77.6722963M201.31081482 706.18074075a38.83614815 38.83614815 0 1 0 0 77.67229628 38.83614815 38.83614815 0 0 0 0-77.67229628" p-id="5301"></path></svg>