<?xml version="1.0" standalone="no"?><!DOCTYPE svg PUBLIC "-//W3C//DTD SVG 1.1//EN" "http://www.w3.org/Graphics/SVG/1.1/DTD/svg11.dtd"><svg t="1561947485852" class="icon" viewBox="0 0 1024 1024" version="1.1" xmlns="http://www.w3.org/2000/svg" p-id="4683" xmlns:xlink="http://www.w3.org/1999/xlink" width="200" height="200"><defs><style type="text/css"></style></defs><path d="M515.072 18.6112c-276.20352 0-500.13696 223.91808-500.13696 500.13696C14.93504 794.9568 238.86848 1018.88 515.072 1018.88c276.21376 0 500.13184-223.9232 500.13184-500.13184C1015.20384 242.52928 791.28576 18.6112 515.072 18.6112zM757.24288 650.13248c0 0-17.32096 48.8704-49.05984 92.78464 0 0 56.71936 19.97824 51.92704 71.83872 0 0 1.91488 57.87136-121.18016 53.88288 0 0-86.57408-6.96832-112.5376-44.89216l-22.89152 0c-25.984 37.92384-112.5376 44.89216-112.5376 44.89216-123.136 3.96288-121.19552-53.88288-121.19552-53.88288-4.83328-51.88096 51.92704-71.83872 51.92704-71.83872-31.73376-43.91424-49.05984-92.78464-49.05984-92.78464-76.9536 128.68096-69.25312-17.9712-69.25312-17.9712 14.42816-86.79424 75.01824-143.6672 75.01824-143.6672-8.66304-78.80192 23.0912-92.78976 23.0912-92.78976 6.63552-243.82464 209.15712-239.54944 213.41184-239.4368 4.2496-0.11264 206.75072-4.38784 213.41184 239.41632 0 0 31.75424 13.98784 23.0912 92.78976 0 0 60.59008 56.86784 75.01312 143.67232C826.42944 632.1408 834.10944 778.81344 757.24288 650.13248z" p-id="4684" fill="#6F92FF"></path></svg>