<?xml version="1.0" standalone="no"?><!DOCTYPE svg PUBLIC "-//W3C//DTD SVG 1.1//EN" "http://www.w3.org/Graphics/SVG/1.1/DTD/svg11.dtd"><svg t="1562142249614" class="icon" viewBox="0 0 1024 1024" version="1.1" xmlns="http://www.w3.org/2000/svg" p-id="6040" xmlns:xlink="http://www.w3.org/1999/xlink" width="200" height="200"><defs><style type="text/css"></style></defs><path d="M710.856704 512.004096c8.6528 0 17.50016 0.59392 27.29984 1.898496l7.651328 22.84544 5.199872 15.552512 15.650816 4.855808a190.65856 190.65856 0 0 1 31.145984 12.843008l14.497792 7.604224 14.65344-7.354368 21.547008-10.795008a227.299328 227.299328 0 0 1 38.79936 38.699008l-10.752 21.551104-7.299072 14.598144 7.499776 14.44864a194.568192 194.568192 0 0 1 12.949504 31.299584l4.902912 15.654912 15.552512 5.20192 22.943744 7.643136c1.304576 9.801728 1.90464 18.702336 1.80224 27.00288v0.299008c0 8.4992-0.602112 17.547264-1.900544 27.348992l-22.949888 7.651328-15.648768 5.302272-4.849664 15.747072a174.196736 174.196736 0 0 1-12.7488 30.896128l-7.70048 14.55104 7.348224 14.702592 10.801152 21.602304c-6.002688 7.798784-11.95008 14.600192-17.999872 20.64384l-0.0512 0.053248-0.049152 0.049152c-6.049792 6.096896-12.797952 11.999232-20.545536 17.948672l-21.602304-10.801152-14.600192-7.299072-14.501888 7.550976a196.007936 196.007936 0 0 1-31.250432 12.9536l-15.650816 4.898816-5.095424 15.501312-7.651328 22.945792c-9.79968 1.304576-18.798592 1.902592-27.348992 1.902592-8.501248 0-17.50016-0.598016-27.348992-1.902592l-7.64928-22.945792-5.148672-15.652864-15.751168-4.849664c-10.698752-3.301376-21.098496-7.548928-30.898176-12.7488l-14.548992-7.702528-14.747648 7.348224-21.600256 10.801152c-7.747584-6.002688-14.55104-11.948032-20.60288-17.997824-6.199296-6.199296-12.148736-13.0048-17.995776-20.649984l10.745856-21.497856 7.299072-14.65344-7.59808-14.497792c-5.249024-10.053632-9.601024-20.502528-12.8512-31.04768l-4.847616-15.753216-15.599616-5.199872-22.943744-7.64928c-1.304576-9.79968-1.906688-18.847744-1.906688-27.348992 0-8.4992 0.602112-17.547264 1.906688-27.348992l22.84544-7.602176 15.599616-5.199872 4.849664-15.699968a188.94848 188.94848 0 0 1 12.8512-31.152128l7.600128-14.495744-7.303168-14.649344-10.795008-21.600256a224.290816 224.290816 0 0 1 38.647808-38.64576l21.547008 10.795008 14.702592 7.354368 14.55104-7.651328a187.928576 187.928576 0 0 1 31.145984-12.900352l15.650816-4.898816 5.199872-15.552512 7.645184-22.949888c10.00448-1.257472 18.853888-1.851392 27.29984-1.851392z m0.106496-64.006144c-14.516224 0-29.034496 1.353728-45.633536 3.9936l-12.324864 1.974272-15.527936 46.68416c-14.184448 4.442112-27.967488 10.067968-41.080832 16.986112l-43.95008-22.048768-10.12736 7.31136a288.638976 288.638976 0 0 0-64.540672 64.466944l-7.319552 10.17856 22.007808 43.99104a247.78752 247.78752 0 0 0-16.9984 41.058304l-46.6432 15.468544-1.972224 12.320768c-2.648064 16.592896-3.940352 31.49824-3.940352 45.6192 0 14.116864 1.292288 29.0816 3.940352 45.6192l1.96608 12.314624 46.649344 15.581184a238.452736 238.452736 0 0 0 16.994304 41.064448l-21.891072 43.819008 7.315456 10.17856c9.682944 13.443072 19.412992 24.866816 29.487104 34.985984 10.125312 10.186752 21.551104 19.746816 34.945024 29.53216l10.12736 7.313408 43.945984-21.991424a236.818432 236.818432 0 0 0 41.080832 16.98816l15.532032 46.68416 12.324864 1.968128c16.596992 2.646016 31.50848 3.940352 45.633536 3.940352 14.12096 0 29.034496-1.294336 45.633536-3.940352l12.324864-1.968128 15.53408-46.68416a255.22176 255.22176 0 0 0 41.074688-16.98816l43.95008 21.991424 10.125312-7.313408c13.447168-9.725952 24.875008-19.349504 34.945024-29.53216 10.12736-10.180608 19.75296-21.542912 29.487104-34.985984l7.313408-10.17856-22.00576-43.988992a238.002176 238.002176 0 0 0 16.996352-41.060352l46.651392-15.579136 1.968128-12.322816c2.646016-16.590848 3.940352-31.49824 3.940352-45.6192 0.106496-14.061568-1.185792-28.971008-3.887104-45.559808l-1.96608-12.320768-46.651392-15.579136a247.054336 247.054336 0 0 0-16.992256-41.060352l22.001664-43.988992-7.313408-10.180608c-18.120704-24.752128-39.839744-46.465024-64.653312-64.464896l-10.131456-7.307264-43.943936 21.991424a246.00576 246.00576 0 0 0-41.080832-16.98816l-15.532032-46.52032-12.212224-1.912832c-16.480256-2.646016-31.053824-3.940352-45.576192-3.940352z m0 0" p-id="6041"></path><path d="M710.914048 704c8.556544 0 16.584704 3.330048 22.628352 9.3696 6.043648 6.043648 9.3696 14.071808 9.3696 22.632448s-3.325952 16.582656-9.3696 22.626304a31.766528 31.766528 0 0 1-22.628352 9.3696 31.768576 31.768576 0 0 1-22.6304-9.3696c-6.045696-6.043648-9.3696-14.065664-9.3696-22.626304s3.323904-16.5888 9.3696-22.632448a31.793152 31.793152 0 0 1 22.6304-9.3696z m0-64c-53.00224 0-96 42.99776-96 96.002048 0 53.00224 42.99776 96.002048 96 96.002048 53.000192 0 95.997952-42.999808 95.997952-96.002048 0-53.004288-42.99776-96.002048-95.997952-96.002048z m0 0M489.920512 475.967488c74.852352-44.679168 124.993536-126.459904 124.993536-219.96544C614.914048 114.614272 500.299776 0 358.912 0s-256 114.614272-256 256.002048c0 93.505536 50.141184 175.286272 124.995584 219.96544C116.50048 526.020608 38.912 637.949952 38.912 767.997952v224.006144C38.912 1009.67424 53.239808 1024 70.914048 1024c17.670144 0 31.995904-14.32576 31.995904-31.995904V767.997952c0-141.381632 114.614272-255.993856 256.002048-255.993856 48.560128 0 93.958144 13.514752 132.640768 36.995072h100.683776a320.749568 320.749568 0 0 0-102.316032-73.03168zM166.909952 256.002048c0-106.039296 85.962752-192.002048 192.002048-192.002048 106.039296 0 192.002048 85.962752 192.002048 192.002048s-85.9648 191.995904-192.002048 191.995904c-106.039296 0-192.002048-85.956608-192.002048-191.995904z m0 0" p-id="6042"></path></svg>