<?xml version="1.0" standalone="no"?><!DOCTYPE svg PUBLIC "-//W3C//DTD SVG 1.1//EN" "http://www.w3.org/Graphics/SVG/1.1/DTD/svg11.dtd"><svg t="1561947282053" class="icon" viewBox="0 0 1024 1024" version="1.1" xmlns="http://www.w3.org/2000/svg" p-id="3007" xmlns:xlink="http://www.w3.org/1999/xlink" width="200" height="200"><defs><style type="text/css"></style></defs><path d="M512 1024a512 512 0 1 1 512-512 511.720727 511.720727 0 0 1-512 512z m28.392727-600.901818c-12.101818 1.396364-50.269091 26.065455-28.858182-24.669091a64.837818 64.837818 0 0 0-23.272727-70.749091 215.738182 215.738182 0 0 0-112.64 9.774545 529.268364 529.268364 0 0 0-227.607273 247.621819c-44.683636 142.894545 111.709091 229.934545 228.072728 247.621818s290.909091-11.170909 370.036363-107.985455c58.647273-70.749091 69.818182-167.098182-40.96-195.025454-36.770909-8.843636-15.36-24.203636-6.050909-50.269091a61.765818 61.765818 0 0 0-48.407272-72.145455 46.545455 46.545455 0 0 0-7.447273-0.930909 277.550545 277.550545 0 0 0-102.865455 16.756364z m155.927273-86.574546a51.805091 51.805091 0 0 0-42.356364 12.101819c-5.585455 10.705455-9.309091 29.789091 21.410909 36.770909a168.96 168.96 0 0 1 30.254546 4.189091 40.866909 40.866909 0 0 1 27.461818 46.08c-4.654545 42.821818 19.549091 49.803636 36.770909 38.167272a36.631273 36.631273 0 0 0 13.963637-29.789091 91.648 91.648 0 0 0-74.007273-106.123636 71.028364 71.028364 0 0 0-13.963637-1.396364h0.465455z m165.236364 1.861819a187.205818 187.205818 0 0 0-152.203637-102.4c-25.134545-2.792727-78.196364-8.843636-84.247272 25.6a26.018909 26.018909 0 0 0 19.083636 31.185454c0.930909 0 1.861818 0.465455 2.792727 0.465455a219.042909 219.042909 0 0 0 34.909091-1.396364 144.290909 144.290909 0 0 1 145.221818 143.36 139.636364 139.636364 0 0 1-1.396363 20.014545c-1.396364 7.912727-2.327273 15.825455-3.258182 23.738182a28.439273 28.439273 0 0 0 21.876363 33.047273 27.927273 27.927273 0 0 0 29.789091-14.429091 219.461818 219.461818 0 0 0-13.032727-159.185454h0.465455z m-402.618182 450.56c-121.483636 15.36-228.072727-37.236364-237.847273-117.294546s79.592727-157.323636 201.076364-172.683636 228.072727 37.236364 238.312727 117.294545-80.523636 157.789091-202.007273 172.683637h0.465455z m-33.047273-228.538182a115.339636 115.339636 0 0 0-119.156364 109.381818 103.796364 103.796364 0 0 0 109.847273 97.745454 63.069091 63.069091 0 0 0 9.309091-0.930909 122.507636 122.507636 0 0 0 115.432727-114.501818 99.560727 99.560727 0 0 0-105.658181-93.090909l-9.774546 1.396364z m22.341818 94.487272a14.894545 14.894545 0 0 1-17.221818-12.101818v-1.861818a16.942545 16.942545 0 0 1 17.221818-15.825454 14.289455 14.289455 0 0 1 16.290909 12.101818 1.722182 1.722182 0 0 1 0.465455 1.396363 17.966545 17.966545 0 0 1-16.756364 16.290909zM386.327273 716.8a36.724364 36.724364 0 0 1-41.425455-31.650909 5.911273 5.911273 0 0 1-0.465454-2.792727 41.053091 41.053091 0 0 1 41.890909-38.632728 34.769455 34.769455 0 0 1 40.494545 28.858182 10.24 10.24 0 0 1 0.465455 3.723637 43.613091 43.613091 0 0 1-40.96 40.494545z" fill="#f78585" p-id="3008"></path></svg>