<?xml version="1.0" standalone="no"?><!DOCTYPE svg PUBLIC "-//W3C//DTD SVG 1.1//EN" "http://www.w3.org/Graphics/SVG/1.1/DTD/svg11.dtd"><svg t="1561947588892" class="icon" viewBox="0 0 1024 1024" version="1.1" xmlns="http://www.w3.org/2000/svg" p-id="8777" xmlns:xlink="http://www.w3.org/1999/xlink" width="200" height="200"><defs><style type="text/css"></style></defs><path d="M511.990279 0.337691c-282.555308 0-511.642866 229.085512-511.642866 511.662309 0 282.594193 229.087559 511.662309 511.642866 511.662309 282.604426 0 511.663332-229.068116 511.663332-511.662309C1023.652588 229.423203 794.594705 0.337691 511.990279 0.337691zM759.102353 725.121935c-9.1678 5.577019 19.874653 52.594869 9.576099 56.786331-3.196809 1.296529-16.258289-8.145517-29.30749-17.568121-12.893658-9.331529-25.731034-18.642592-29.049616-17.661242-20.419052 6.087649-42.38125 9.404184-65.282842 9.404184-83.777055 0-155.172105-44.413536-182.52201-106.686834-13.82282 2.203178-28.046776 3.315512-42.599214 3.315512-29.040407 0-56.851822-4.53734-82.530668-12.82919-6.342452-2.042519-20.996197 8.837272-35.620265 19.73446-13.423731 10.025331-26.836205 20.014846-33.854039 20.014846-0.900509 0-1.685385-0.147356-2.350534-0.512676-6.997368-3.571339 21.068851-61.96119 14.589276-66.118883-58.000995-37.069267-95.607498-96.55508-95.607498-163.658384 0-112.339578 105.384166-203.40769 235.372705-203.40769 122.57264 0 223.254713 80.974219 234.336096 184.361915 103.115496 4.065596 185.227632 75.397201 185.227632 162.8029C839.482031 647.410016 807.807634 695.485965 759.102353 725.121935z" p-id="8778" fill="#1afa29"></path><path d="M573.408093 512c-11.308557 0-20.446681 9.1678-20.446681 20.48659 0 11.278881 9.139148 20.446681 20.446681 20.446681 11.31879 0 20.456914-9.1678 20.456914-20.446681C593.865008 521.1678 584.726883 512 573.408093 512z" p-id="8779" fill="#1afa29"></path><path d="M696.207907 512c-11.289114 0-20.465101 9.1678-20.465101 20.48659 0 11.278881 9.175987 20.446681 20.465101 20.446681 11.288091 0 20.476357-9.1678 20.476357-20.446681C716.684264 521.1678 707.495998 512 696.207907 512z" p-id="8780" fill="#1afa29"></path><path d="M419.918303 286.86752c-107.388822 0-194.440457 73.028247-194.440457 163.130358 0 51.357691 28.28623 100.728122 72.498174 130.637316 2.314719 1.567705 13.941524 6.887874 13.177114 14.522762-1.677199 16.675798-6.6607 28.085662-6.6607 28.085662s13.622252-15.690354 23.772426-23.216771c4.519943-3.391237 12.858866-0.838088 15.192004 0 23.472598 8.41874 49.308009 13.06455 76.461439 13.06455 10.844999 0 21.496593-0.709151 31.838126-2.165316-0.747014-5.853311-1.137916-11.813047-1.137916-17.825994 0-80.917938 70.358441-148.059104 162.604378-160.797219C602.71456 350.527398 520.191054 286.86752 419.918303 286.86752zM338.044598 409.648914c-16.949021 0-30.699186-13.723559-30.699186-30.692023 0-16.947997 13.751189-30.67258 30.699186-30.67258s30.700209 13.724583 30.700209 30.67258C368.744807 395.925355 354.993618 409.648914 338.044598 409.648914zM501.766426 409.648914c-16.939811 0-30.698163-13.723559-30.698163-30.692023 0-16.947997 13.758352-30.67258 30.698163-30.67258 16.949021 0 30.719652 13.724583 30.719652 30.67258C532.486078 395.925355 518.715447 409.648914 501.766426 409.648914z" p-id="8781" fill="#1afa29"></path></svg>