<?xml version="1.0" standalone="no"?><!DOCTYPE svg PUBLIC "-//W3C//DTD SVG 1.1//EN" "http://www.w3.org/Graphics/SVG/1.1/DTD/svg11.dtd"><svg t="1561947542660" class="icon" viewBox="0 0 1024 1024" version="1.1" xmlns="http://www.w3.org/2000/svg" p-id="7307" xmlns:xlink="http://www.w3.org/1999/xlink" width="200" height="200"><defs><style type="text/css"></style></defs><path d="M615.673856 53.983232C361.125888-7.170048 99.723264 153.106432 39.622656 407.764992c-6.168576 26.13248-8.460288 53.182464-12.57472 79.802368-0.342016 2.215936-0.866304 4.4032-1.304576 6.6048v54.51776c1.419264 11.978752 2.58048 23.996416 4.294656 35.934208 19.98848 139.157504 87.5008 249.643008 201.920512 330.860544 71.91552 51.0464 152.655872 78.70464 240.709632 84.77696 1.95584 0.135168 3.874816 0.80896 5.810176 1.232896h54.511616c12.220416-1.445888 24.49408-2.537472 36.653056-4.390912 160.856064-24.528896 282.677248-107.339776 359.452672-250.43968 149.01248-277.755904-6.416384-618.92608-313.421824-692.680704z m-291.827712 303.90272c4.51584-1.28 9.484288-1.314816 14.249984-1.316864 111.972352-0.065536 223.944704-0.12288 335.917056 0.096256 8.37632 0.016384 16.748544 2.125824 25.122816 3.260416l0.753664 2.635776-200.722432 179.218432-196.93568-175.77984c8.02816-3.08224 14.665728-6.146048 21.614592-8.114176z m408.303616 274.808832c-0.176128 30.234624-24.958976 53.03296-56.5248 53.149696-49.43872 0.18432-98.879488 0.053248-148.318208 0.053248-62.55616 0-125.11232 0.016384-187.66848-0.006144-37.19168-0.012288-59.961344-22.706176-59.973632-59.797504-0.026624-70.13376-0.169984-140.26752 0.182272-210.40128 0.047104-9.572352 2.656256-19.134464 4.079616-28.700672l2.783232-0.528384 212.443136 189.585408 221.485056-197.660672c7.671808 9.703424 11.5712 20.18304 11.589632 31.797248 0.124928 74.16832 0.356352 148.340736-0.077824 222.509056z" p-id="7308" fill="#49C085"></path></svg>